# xmcd CD database file
#
# Track frame offsets:
#	150
#	13742
#	26786
#	45365
#	65560
#	81806
#	104467
#	123035
#	140643
#	154980
#	170000
#	188044
#	213722
#	228108
#
# Disc length: 3194 seconds
#
# Revision: 2
# Processed by: cddbd v1.5.2PL0 Copyright (c) Steve Scherf et al.
# Submitted via: CDex 1.51
#
DISCID=be0c780e
DTITLE=Robin Laing - The Water of Life
DYEAR=2003
DGENRE=Folk
TTITLE0=A Wee Drappie o't
TTITLE1=Shining Clear
TTITLE2=Jock Geddes and the Soo
TTITLE3=Lochanside
TTITLE4=The Devil Uisge Beatha
TTITLE5=The Best o' the Barley
TTITLE6=The Wag at the Wa'
TTITLE7=Bruichladdich
TTITLE8=A Cogie o'Yill
TTITLE9=The Queer Folk in the Shaws
TTITLE10=The Barley Bree
TTITLE11=The Ghost wi' the Squeaky Wheel
TTITLE12=The Gulls of Invergordon
TTITLE13=A Wee Drap o' Whisky
EXTD=YEAR: 2003
EXTT0=
EXTT1=
EXTT2=
EXTT3=
EXTT4=
EXTT5=
EXTT6=
EXTT7=
EXTT8=
EXTT9=
EXTT10=
EXTT11=
EXTT12=
EXTT13=
PLAYORDER=
